<?xml version="1.0" encoding="iso-8859-1"?>
<!-- Generator: Adobe Illustrator 16.0.0, SVG Export Plug-In . SVG Version: 6.00 Build 0)  -->
<!DOCTYPE svg PUBLIC "-//W3C//DTD SVG 1.1//EN" "http://www.w3.org/Graphics/SVG/1.1/DTD/svg11.dtd">
<svg version="1.1" id="Capa_1" xmlns="http://www.w3.org/2000/svg" xmlns:xlink="http://www.w3.org/1999/xlink" x="0px" y="0px"
	 width="94.501px" height="94.501px" viewBox="0 0 94.501 94.501" style="enable-background:new 0 0 94.501 94.501;"
	 xml:space="preserve">
<g>
	<path d="M34.07,78.892l-2.623-2.155c-3.064-2.513-13.056-11.978-13.056-28.296c0-17.932,11.818-29.52,30.112-29.52
		c17.839,0,28.922,10.948,28.922,28.573c0,16.471-9.248,25.965-13.226,29.284l-2.571,2.149v11.014h32.873V75.582H83.936
		c5.209-8.365,7.848-17.799,7.848-28.088c0-25.68-17.393-42.934-43.279-42.934C22.325,4.561,4.041,22.606,4.041,48.44
		c0,9.521,2.705,19.052,7.663,27.142H0v14.359h34.071L34.07,78.892L34.07,78.892z"/>
</g>
<g>
</g>
<g>
</g>
<g>
</g>
<g>
</g>
<g>
</g>
<g>
</g>
<g>
</g>
<g>
</g>
<g>
</g>
<g>
</g>
<g>
</g>
<g>
</g>
<g>
</g>
<g>
</g>
<g>
</g>
</svg>
