<?xml version="1.0" encoding="iso-8859-1"?>
<!-- Generator: Adobe Illustrator 19.0.0, SVG Export Plug-In . SVG Version: 6.00 Build 0)  -->
<svg version="1.1" id="Layer_1" xmlns="http://www.w3.org/2000/svg" xmlns:xlink="http://www.w3.org/1999/xlink" x="0px" y="0px"
	 viewBox="0 0 511.999 511.999" style="enable-background:new 0 0 511.999 511.999;" xml:space="preserve">
<g>
	<g>
		<g>
			<path d="M385.422,108.462L255.999,0L126.577,108.462C84.915,143.377,69.34,201.18,87.82,252.3l58.329,161.352h-25.242v98.348
				h270.185v-98.348H365.85l58.33-161.352C442.658,201.18,427.083,143.377,385.422,108.462z M360.035,480.943H151.964v-36.233h5.412
				h197.247h5.412V480.943z M394.972,241.741l-62.146,171.911H179.173l-62.145-171.911c-14.064-38.907-2.21-82.902,29.498-109.476
				L256,40.52l109.475,91.745C397.182,158.839,409.036,202.835,394.972,241.741z"/>
			<polygon points="271.528,132.944 240.471,132.944 240.471,183.31 193.549,183.31 193.549,214.367 240.471,214.367 
				240.471,354.713 271.528,354.713 271.528,214.367 318.45,214.367 318.45,183.31 271.528,183.31 			"/>
		</g>
	</g>
</g>
<g>
</g>
<g>
</g>
<g>
</g>
<g>
</g>
<g>
</g>
<g>
</g>
<g>
</g>
<g>
</g>
<g>
</g>
<g>
</g>
<g>
</g>
<g>
</g>
<g>
</g>
<g>
</g>
<g>
</g>
</svg>
