<?xml version="1.0" encoding="iso-8859-1"?>
<!-- Generator: Adobe Illustrator 19.0.0, SVG Export Plug-In . SVG Version: 6.00 Build 0)  -->
<svg version="1.1" id="Layer_1" xmlns="http://www.w3.org/2000/svg" xmlns:xlink="http://www.w3.org/1999/xlink" x="0px" y="0px"
	 viewBox="0 0 512 512" style="enable-background:new 0 0 512 512;" xml:space="preserve">
<g>
	<g>
		<path d="M471.417,374.648v-99.892c0-55.168-44.723-99.893-99.892-99.893h-37.46c-75.858,0-137.352,61.495-137.352,137.352V474.54
			L471.417,512v-49.946c-82.753,0-149.839-67.085-149.839-149.839c0-20.688,16.772-37.46,37.46-37.46
			c20.688,0,37.46,16.772,37.46,37.46v37.46L471.417,374.648z"/>
	</g>
</g>
<g>
	<g>
		<path d="M63.723,156.133c-42.758,74.058-51.714,158.349-31.668,235.026l95.156-31.365c-4.024-17.479-5.849-35.479-5.358-53.554
			l37.4,6.233v-0.258c0-12.713,1.376-25.107,3.966-37.056l-37.018-6.17c4.484-21.564,12.417-42.793,24.032-62.91
			c40.397-69.968,114.61-108.234,190.075-106.078v37.402h31.216c2.093,0,4.173,0.055,6.243,0.149V104.45
			c21.401,4.505,42.464,12.405,62.433,23.934l49.946-86.509C340.841-44.327,149.925,6.827,63.723,156.133z"/>
	</g>
</g>
<g>
</g>
<g>
</g>
<g>
</g>
<g>
</g>
<g>
</g>
<g>
</g>
<g>
</g>
<g>
</g>
<g>
</g>
<g>
</g>
<g>
</g>
<g>
</g>
<g>
</g>
<g>
</g>
<g>
</g>
</svg>
